<svg width="25" height="24" viewBox="0 0 25 24" fill="none" xmlns="http://www.w3.org/2000/svg">
<path d="M12.5312 2.03125C10.5813 2.03125 8.76125 2.59125 7.23125 3.55125L14.0913 10.4213L14.1013 7.68125C14.1013 7.27125 14.4413 6.93125 14.8513 6.93125C15.2713 6.93125 15.6013 7.27125 15.6013 7.68125L15.5913 12.2312C15.5913 12.5413 15.4012 12.8113 15.1213 12.9213C15.0312 12.9613 14.9313 12.9812 14.8413 12.9812C14.6413 12.9812 14.4513 12.9013 14.3113 12.7613L6.12125 4.56125C6.08125 4.52125 6.05125 4.48125 6.02125 4.44125C3.88125 6.28125 2.53125 9.00125 2.53125 12.0312C2.53125 17.5513 7.01125 22.0312 12.5312 22.0312C14.4812 22.0312 16.3013 21.4712 17.8313 20.5112L10.9713 13.6413L10.9613 16.3812C10.9613 16.7912 10.6213 17.1312 10.2113 17.1312C9.79125 17.1312 9.46125 16.7912 9.46125 16.3812L9.47125 11.8313C9.47125 11.5212 9.66125 11.2513 9.94125 11.1413C10.2112 11.0213 10.5413 11.0813 10.7513 11.3013L18.9412 19.5012C18.9813 19.5413 19.0112 19.5812 19.0413 19.6213C21.1812 17.7812 22.5312 15.0612 22.5312 12.0312C22.5312 6.51125 18.0513 2.03125 12.5312 2.03125Z" fill="#008080"/>
</svg>
